<svg id="Layer_1" data-name="Layer 1" xmlns="http://www.w3.org/2000/svg" viewBox="0 0 16.5 11.5"><defs><style>.cls-1{fill:#fff;}</style></defs><title>mobile-menu-white</title><path class="cls-1" d="M.72,1.5h15a.76.76,0,0,0,.75-.75A.76.76,0,0,0,15.72,0H.72A.76.76,0,0,0,0,.75.76.76,0,0,0,.72,1.5Z" transform="translate(0.03)"/><path class="cls-1" d="M.72,6.5h15a.75.75,0,1,0,0-1.5H.72a.75.75,0,0,0,0,1.5Z" transform="translate(0.03)"/><path class="cls-1" d="M.72,11.5h15a.75.75,0,1,0,0-1.5H.72a.75.75,0,0,0,0,1.5Z" transform="translate(0.03)"/></svg>